<svg xmlns="http://www.w3.org/2000/svg" viewBox="0 0 512 512" xmlns:v="https://vecta.io/nano"><circle cx="256" cy="256" r="256" fill="#273b7a"/><path d="M322.965 503.132c75.369-20.373 136.947-74.295 167.727-144.763L380.449 248.125l-80.363 40.465-13.941-13.939-95.741 95.92 132.561 132.561z" fill="#121149"/><path d="M184.879 152.521v206.958c0 10.864 11.907 17.527 21.168 11.843l169.746-104.195c8.868-5.444 8.828-18.344-.072-23.731L205.972 140.633c-9.262-5.608-21.093 1.062-21.093 11.888z" fill="#ffc100"/><path d="M195.387 372.964L337.022 219.97l-131.051-79.338c-9.261-5.608-21.094 1.062-21.094 11.888v206.958c.002 6.835 4.711 12.001 10.51 13.486z" fill="#d8e86d"/><path d="M206.045 371.322l116.527-71.527 14.45-8.87-141.703-151.871c-5.77 1.505-10.442 6.665-10.442 13.467v206.958c.002 10.864 11.909 17.527 21.168 11.843z" fill="#f52b2b"/><path d="M195.387 372.964l108.661-117.376-108.73-116.533c-5.77 1.505-10.442 6.665-10.442 13.467V359.48c.003 6.833 4.712 11.999 10.511 13.484z" fill="#00b7ad"/></svg>